<?xml version="1.0" encoding="utf-8"?>
<svg viewBox="0 0 500 500" xmlns="http://www.w3.org/2000/svg">
  <g fill="#f4a6d7" fill-rule="none" stroke="none" stroke-width="1" stroke-linecap="butt" stroke-linejoin="miter" stroke-miterlimit="10" stroke-dasharray="" stroke-dashoffset="0" font-family="none" font-weight="none" font-size="none" text-anchor="none" style="mix-blend-mode: normal;" transform="matrix(2.330303, 0, 0, 2.187673, -390.247253, -183.137299)">
    <g data-paper-data="{&quot;isGlobalGroup&quot;:true,&quot;bounds&quot;:{&quot;x&quot;:80.05984893196975,&quot;y&quot;:115.00000000000003,&quot;width&quot;:389.88030213606044,&quot;height&quot;:239.99999999999997}}">
      <g data-paper-data="{&quot;isPrimaryText&quot;:true}" fill-rule="nonzero"/>
      <g data-paper-data="{&quot;fillRule&quot;:&quot;evenodd&quot;,&quot;fillRuleOriginal&quot;:&quot;evenodd&quot;,&quot;isIcon&quot;:true,&quot;iconStyle&quot;:&quot;standalone&quot;,&quot;selectedEffects&quot;:{&quot;container&quot;:&quot;&quot;,&quot;transformation&quot;:&quot;&quot;,&quot;pattern&quot;:&quot;&quot;},&quot;bounds&quot;:{&quot;x&quot;:219.19121503468378,&quot;y&quot;:115.00000000000003,&quot;width&quot;:111.61756993063247,&quot;height&quot;:160.12665385050323},&quot;iconType&quot;:&quot;initial&quot;,&quot;initialText&quot;:&quot;A&quot;,&quot;rawInitialId&quot;:448,&quot;disableIconEffects&quot;:&quot;true&quot;,&quot;monogramSpecial&quot;:&quot;seven-nation-army&quot;,&quot;suitableAsStandaloneIcon&quot;:true}" fill-rule="evenodd">
        <path d="M262.91499,115h24.25454c0.63765,0 1.27386,0.0313 1.90847,0.0939c0.63443,0.0625 1.26434,0.15592 1.88972,0.28025c0.62553,0.12447 1.24327,0.27923 1.85352,0.46428c0.6101,0.18519 1.20967,0.39981 1.79871,0.6437c0.58919,0.2439 1.16482,0.51621 1.72717,0.81693c0.56236,0.30058 1.10871,0.62798 1.63905,0.98222c0.53005,0.35423 1.04164,0.73356 1.53448,1.13813c0.49284,0.40457 0.96476,0.83222 1.41563,1.28309l13.91574,13.91589l10.31053,10.39505c0.44654,0.45044 0.87015,0.92135 1.27082,1.41304c0.40068,0.49168 0.77654,1.00198 1.12746,1.53059c0.35063,0.52832 0.67472,1.07265 0.97241,1.63299c0.2976,0.5602 0.56712,1.13346 0.80856,1.71982c0.24159,0.58659 0.45404,1.18356 0.63722,1.79078c0.18318,0.60736 0.33635,1.22221 0.45938,1.84429c0.12318,0.62236 0.21563,1.24904 0.2775,1.88034c0.06187,0.6313 0.09288,1.26419 0.09288,1.89852v96.93364c0,0.31862 -0.00779,0.63709 -0.02351,0.9554c-0.01568,0.31827 -0.03913,0.63589 -0.07038,0.95288c-0.03115,0.31719 -0.0701,0.63336 -0.11697,0.94853c-0.04673,0.31519 -0.1011,0.62896 -0.16327,0.9413c-0.06211,0.31251 -0.13192,0.62328 -0.20942,0.93233c-0.07731,0.30899 -0.16226,0.61606 -0.25486,0.92123c-0.0925,0.30483 -0.19241,0.60714 -0.29971,0.90694c-0.10745,0.30029 -0.22198,0.59752 -0.34385,0.89171c-0.12187,0.29427 -0.25097,0.58561 -0.3874,0.87403c-0.1363,0.28793 -0.27937,0.57228 -0.42952,0.85307c-0.15014,0.28112 -0.30721,0.55838 -0.47106,0.83174c-0.16375,0.2732 -0.33414,0.54229 -0.51116,0.80726c-0.17697,0.26495 -0.36044,0.52539 -0.55039,0.7813c-0.18981,0.25591 -0.38582,0.50703 -0.58789,0.75338c-0.20207,0.24627 -0.4102,0.48742 -0.62409,0.7234c-0.2139,0.23621 -0.43356,0.46698 -0.65899,0.69234c-0.22529,0.22525 -0.45606,0.44488 -0.69216,0.65891c-0.23611,0.2139 -0.47727,0.42202 -0.72361,0.62424c-0.24635,0.20207 -0.49731,0.39793 -0.75304,0.5876c-0.25601,0.18995 -0.5165,0.37342 -0.78145,0.55039c-0.26495,0.17712 -0.53409,0.34759 -0.80741,0.5113c-0.27337,0.16385 -0.55044,0.32082 -0.83121,0.47092c-0.28111,0.15014 -0.56554,0.29337 -0.85356,0.42952c-0.28817,0.1363 -0.57938,0.26539 -0.87361,0.38726c-0.29452,0.12211 -0.59178,0.23678 -0.89179,0.34399c-0.30001,0.10731 -0.60245,0.20726 -0.90721,0.29986c-0.30491,0.09245 -0.61183,0.1774 -0.92092,0.25471c-0.30908,0.07745 -0.62005,0.1474 -0.9326,0.20957c-0.31255,0.06216 -0.62626,0.11654 -0.94126,0.16327c-0.31529,0.04688 -0.63144,0.08582 -0.94861,0.11697c-0.31716,0.0313 -0.63477,0.05467 -0.95294,0.07038c-0.31817,0.01572 -0.63664,0.02351 -0.95539,0.02351h-72.67918c-0.31865,0 -0.63713,-0.00784 -0.95542,-0.02351c-0.31822,-0.01572 -0.63585,-0.03909 -0.95285,-0.07038c-0.31714,-0.03115 -0.63332,-0.0701 -0.94854,-0.11697c-0.31509,-0.04673 -0.62886,-0.1011 -0.9413,-0.16327c-0.31262,-0.06211 -0.62339,-0.13192 -0.93234,-0.20942c-0.30917,-0.07745 -0.61626,-0.16241 -0.92125,-0.25486c-0.30487,-0.09245 -0.60718,-0.19241 -0.90694,-0.29971c-0.3002,-0.10731 -0.59742,-0.22193 -0.8917,-0.34385c-0.29452,-0.12202 -0.58575,-0.25111 -0.8737,-0.3874c-0.2881,-0.1363 -0.57256,-0.27937 -0.85337,-0.42952c-0.28109,-0.15019 -0.55835,-0.30721 -0.83175,-0.47106c-0.27329,-0.16385 -0.54238,-0.33423 -0.80726,-0.51116c-0.26503,-0.17712 -0.52543,-0.36058 -0.78126,-0.55039c-0.25595,-0.18981 -0.50709,-0.38582 -0.7534,-0.58789c-0.24631,-0.20207 -0.48751,-0.4102 -0.72361,-0.62424c-0.23607,-0.21394 -0.46676,-0.43356 -0.69208,-0.65887c-0.22531,-0.22531 -0.44494,-0.45598 -0.65891,-0.69207c-0.21397,-0.23607 -0.42202,-0.47727 -0.62417,-0.72358c-0.20214,-0.24631 -0.39811,-0.49742 -0.5879,-0.75332c-0.18982,-0.25594 -0.37323,-0.51638 -0.55024,-0.7813c-0.17701,-0.26491 -0.34744,-0.53403 -0.51124,-0.80733c-0.16381,-0.27329 -0.32081,-0.55044 -0.471,-0.83143c-0.15019,-0.28097 -0.29341,-0.5655 -0.42967,-0.85358c-0.13626,-0.28804 -0.26535,-0.57925 -0.38727,-0.87363c-0.12187,-0.29436 -0.23654,-0.59154 -0.34385,-0.89155c-0.10731,-0.29999 -0.20726,-0.60244 -0.29971,-0.90735c-0.09245,-0.30491 -0.17755,-0.6119 -0.255,-0.92101c-0.07741,-0.30912 -0.14712,-0.61981 -0.20913,-0.93208c-0.06231,-0.31256 -0.11688,-0.62659 -0.16371,-0.94211c-0.04659,-0.31511 -0.08553,-0.63101 -0.11668,-0.94773c-0.03134,-0.31731 -0.05481,-0.63506 -0.07038,-0.95326c-0.01572,-0.31827 -0.02351,-0.63674 -0.02351,-0.95541v-96.93364c0,-0.63765 0.0313,-1.27371 0.0939,-1.90818c0.06245,-0.63462 0.15577,-1.26462 0.28025,-1.89001c0.12447,-0.62553 0.27923,-1.24327 0.46428,-1.85338c0.1851,-0.61019 0.39962,-1.20981 0.64356,-1.79885c0.24402,-0.58919 0.51634,-1.16496 0.81694,-1.72732c0.30059,-0.56236 0.628,-1.10856 0.98225,-1.63876c0.35427,-0.5302 0.73366,-1.04174 1.13817,-1.53462c0.40455,-0.49298 0.83224,-0.96491 1.28309,-1.41563l24.25457,-24.25454c0.45088,-0.45087 0.92282,-0.87851 1.41566,-1.28309c0.49284,-0.40442 1.00443,-0.7839 1.53462,-1.13828c0.53005,-0.35409 1.0764,-0.68149 1.63876,-0.98207c0.56236,-0.30073 1.13813,-0.57303 1.72732,-0.81693c0.58904,-0.24394 1.18861,-0.45851 1.79871,-0.6437c0.6101,-0.18505 1.22799,-0.33981 1.85352,-0.46428c0.62529,-0.12433 1.2552,-0.21774 1.88972,-0.28025c0.63462,-0.06259 1.27082,-0.0939 1.90847,-0.0939zM262.91499,117.59876c-0.55255,0 -1.10366,0.02712 -1.65347,0.0812c-0.54995,0.05423 -1.09587,0.13529 -1.6379,0.24303c-0.54188,0.10774 -1.07712,0.24188 -1.60573,0.40226c-0.52875,0.16038 -1.04842,0.3463 -1.559,0.55775c-0.51044,0.21145 -1.00933,0.44741 -1.49654,0.70789c-0.48736,0.26049 -0.96073,0.54418 -1.4201,0.85111c-0.45938,0.30707 -0.90275,0.63577 -1.32981,0.98625c-0.42707,0.35049 -0.83597,0.72101 -1.22669,1.11174l-24.25454,24.25454c-0.39069,0.39073 -0.76131,0.79962 -1.11186,1.22669c-0.3505,0.42711 -0.67924,0.87039 -0.98621,1.32981c-0.30699,0.45952 -0.59073,0.93289 -0.85117,1.4201c-0.26047,0.48736 -0.49642,0.98611 -0.70783,1.49654c-0.21146,0.51058 -0.39737,1.03025 -0.55777,1.55886c-0.16038,0.52861 -0.29445,1.06399 -0.40219,1.60587c-0.10785,0.54188 -0.18883,1.0878 -0.24293,1.63761c-0.0542,0.54995 -0.0813,1.10121 -0.0813,1.65376v96.93364c0,0.27608 0.00678,0.55198 0.02035,0.82769c0.01348,0.27583 0.03378,0.55102 0.06091,0.82556c0.02709,0.27512 0.06085,0.54929 0.10131,0.82248c0.04048,0.27278 0.08768,0.54453 0.14159,0.81527c0.05387,0.27102 0.11435,0.54042 0.18142,0.80822c0.06709,0.26784 0.1407,0.53385 0.22085,0.79803c0.08015,0.26421 0.16674,0.5263 0.25975,0.78625c0.09302,0.25995 0.19236,0.51747 0.29801,0.77256c0.10564,0.25505 0.2175,0.50739 0.33555,0.757c0.11805,0.24959 0.24215,0.49613 0.37229,0.7396c0.13015,0.2435 0.26621,0.48368 0.40815,0.7205c0.14194,0.23681 0.28961,0.47 0.44299,0.69957c0.15339,0.22957 0.31234,0.45524 0.4768,0.67699c0.16447,0.22177 0.33429,0.43937 0.50944,0.65279c0.17517,0.21343 0.35544,0.42244 0.54085,0.627c0.18541,0.20456 0.37574,0.40448 0.57098,0.59973c0.19522,0.19522 0.39512,0.38553 0.59971,0.57097c0.20456,0.18541 0.41355,0.36568 0.62698,0.54083c0.21341,0.17514 0.43098,0.34491 0.65271,0.50934c0.22187,0.16461 0.44755,0.32358 0.67704,0.47691c0.22961,0.15339 0.46281,0.30107 0.69964,0.44304c0.23674,0.14192 0.4768,0.27788 0.72018,0.40789c0.24366,0.13024 0.49027,0.25443 0.73981,0.37241c0.24968,0.11813 0.50198,0.23005 0.75693,0.33548c0.25514,0.10577 0.51261,0.2051 0.77242,0.29798c0.26021,0.09317 0.52244,0.17985 0.78665,0.2599c0.26413,0.08019 0.53006,0.15375 0.79778,0.22081c0.26798,0.06721 0.5373,0.12764 0.80796,0.18144c0.27086,0.05379 0.54289,0.1011 0.81608,0.14163c0.27306,0.04053 0.54695,0.07428 0.82167,0.10139c0.27482,0.02702 0.55014,0.04731 0.82596,0.06086c0.27573,0.01355 0.55161,0.02034 0.82769,0.02034h72.67918c0.27606,0 0.55197,-0.00678 0.8276,-0.02034c0.27591,-0.01355 0.55125,-0.03389 0.82601,-0.06086c0.27476,-0.02712 0.54866,-0.06086 0.82169,-0.10139c0.27318,-0.04053 0.54519,-0.08784 0.81606,-0.14163c0.27073,-0.05379 0.53986,-0.11423 0.80769,-0.1813c0.26798,-0.06707 0.53394,-0.14077 0.79803,-0.22096c0.26423,-0.08005 0.5263,-0.16673 0.78635,-0.25976c0.26005,-0.09303 0.51751,-0.19226 0.77236,-0.29784c0.25515,-0.10572 0.50755,-0.2175 0.75707,-0.33563c0.24981,-0.11813 0.4963,-0.24217 0.73962,-0.37241c0.24375,-0.13024 0.48404,-0.26625 0.72072,-0.40803c0.23683,-0.14197 0.47005,-0.28963 0.69952,-0.44299c0.22947,-0.15331 0.45505,-0.31223 0.67674,-0.47676c0.22198,-0.16459 0.43976,-0.33447 0.65322,-0.50961c0.21332,-0.17511 0.42231,-0.3554 0.62698,-0.5409c0.20438,-0.18529 0.40428,-0.37561 0.59957,-0.57092c0.19515,-0.19511 0.38538,-0.39494 0.57072,-0.59946c0.18563,-0.20474 0.36591,-0.4138 0.54101,-0.62719c0.17524,-0.21342 0.345,-0.43099 0.50943,-0.65273c0.16457,-0.22187 0.32351,-0.44754 0.47683,-0.67699c0.15332,-0.22957 0.30101,-0.46278 0.44308,-0.69964c0.14178,-0.23667 0.27779,-0.47675 0.40789,-0.72019c0.13038,-0.24385 0.25457,-0.49056 0.37269,-0.74012c0.11798,-0.24942 0.22976,-0.50162 0.33519,-0.75658c0.10572,-0.25513 0.2051,-0.5126 0.29798,-0.7724c0.09317,-0.26026 0.17985,-0.52248 0.2599,-0.78665c0.08019,-0.2641 0.15375,-0.53004 0.22081,-0.7978c0.06707,-0.26782 0.12764,-0.53714 0.18144,-0.80797c0.05379,-0.27078 0.1011,-0.5428 0.14163,-0.81608c0.04053,-0.27298 0.07428,-0.54686 0.10139,-0.82169c0.02697,-0.27492 0.04731,-0.55023 0.06086,-0.82593c0.01355,-0.27572 0.02034,-0.55162 0.02034,-0.82769v-96.93364c0,-0.54967 -0.02683,-1.09789 -0.08048,-1.64496c-0.05351,-0.54707 -0.13371,-1.0901 -0.24043,-1.62938c-0.10659,-0.53928 -0.23928,-1.07193 -0.39808,-1.59823c-0.15865,-0.52616 -0.3427,-1.04337 -0.55212,-1.55164c-0.20923,-0.50818 -0.44279,-1.005 -0.70067,-1.49049c-0.25803,-0.48534 -0.53899,-0.95712 -0.84289,-1.4152c-0.3039,-0.45779 -0.62943,-0.89972 -0.97659,-1.32578c-0.34731,-0.4262 -0.71453,-0.83452 -1.1015,-1.22496l-10.31024,-10.39476l-13.90824,-13.90838c-0.39073,-0.39073 -0.79962,-0.76125 -1.22669,-1.11174c-0.42707,-0.35049 -0.87044,-0.67933 -1.32996,-0.9864c-0.45924,-0.30678 -0.93246,-0.59048 -1.41981,-0.85097c-0.48736,-0.26049 -0.98625,-0.49645 -1.49669,-0.70789c-0.51058,-0.21145 -1.03025,-0.39735 -1.559,-0.55775c-0.52847,-0.16038 -1.06371,-0.29452 -1.60573,-0.40226c-0.54202,-0.10774 -1.08794,-0.1888 -1.6379,-0.24303c-0.54981,-0.05409 -1.10092,-0.0812 -1.65347,-0.0812zM259.44998,137.9341l3.46502,-3.46488h24.25454l3.46488,3.46488h-27.71941v42.00179h-3.46502zM252.52009,179.93589v-35.0719l3.46502,-3.46502v38.53692zM294.09928,141.39897l3.46502,3.46502h-31.60703v-3.46502zM245.59026,179.93589v-28.14201l3.46493,-3.46502v31.60703zM301.02917,148.32886l3.3805,3.46502h-38.45239v-3.46502zM238.66039,182.97831v-24.25454l3.46493,-3.46502v27.71955h45.04422l3.46488,3.46488v69.21423h-3.46488v-69.21423h-45.04422zM287.16954,182.97831h3.46488v-21.21226h-3.46488zM265.95727,158.72377v-3.46502h41.91727l3.46502,3.46502v24.25454h-3.46502v-24.25454zM297.5643,182.97831h-3.46502v-21.21226h3.46502zM304.40967,182.97831h-3.3805v-21.21226h3.3805zM284.12712,189.90819v3.38035h-35.07193l-3.46493,-3.38035zM297.5643,255.65741h-3.46502v-65.74921l3.46502,3.46488zM284.12712,196.75357v3.46488h-28.14201l-3.46502,-3.46488zM304.49419,255.65741h-3.46502v-58.90384l3.46502,3.46488zM284.12712,203.68331v3.46502h-21.21212l-3.46502,-3.46502zM262.91499,207.14833h-3.46502v48.50908h3.46502zM311.33956,255.65741h-3.46502v-51.9741l3.46502,3.46502zM242.12531,255.65741h-3.46493v-48.50908h3.46493zM249.05519,255.65741h-3.46493v-48.50908h3.46493zM255.98511,255.65741h-3.46502v-48.50908h3.46502z" data-paper-data="{&quot;isPathIcon&quot;:true}" style="fill: rgb(187, 49, 169);"/>
      </g>
    </g>
  </g>
</svg>